<?xml version="1.0" encoding="UTF-8" standalone="no"?>
<!-- Created with Inkscape (http://www.inkscape.org/) -->

<svg
   version="1.1"
   id="svg2"
   width="2000"
   height="1600"
   viewBox="0 0 2000 1600"
   sodipodi:docname="logo-completo.ai"
   xmlns:inkscape="http://www.inkscape.org/namespaces/inkscape"
   xmlns:sodipodi="http://sodipodi.sourceforge.net/DTD/sodipodi-0.dtd"
   xmlns="http://www.w3.org/2000/svg"
   xmlns:svg="http://www.w3.org/2000/svg">
  <defs
     id="defs6">
    <clipPath
       clipPathUnits="userSpaceOnUse"
       id="clipPath16">
      <path
         d="M 0,1200 H 1500 V 0 H 0 Z"
         id="path14" />
    </clipPath>
  </defs>
  <sodipodi:namedview
     id="namedview4"
     pagecolor="#ffffff"
     bordercolor="#000000"
     borderopacity="0.25"
     inkscape:showpageshadow="2"
     inkscape:pageopacity="0.0"
     inkscape:pagecheckerboard="0"
     inkscape:deskcolor="#d1d1d1" />
  <g
     id="g8"
     inkscape:groupmode="layer"
     inkscape:label="logo-completo"
     transform="matrix(1.3333333,0,0,-1.3333333,0,1600)">
    <g
       id="g10">
      <g
         id="g12"
         clip-path="url(#clipPath16)">
        <g
           id="g18"
           transform="translate(808.5264,258.4834)">
          <path
             d="m 0,0 c 18.312,11.877 32.674,28.33 43.063,49.368 10.398,21.038 15.597,44.923 15.597,71.653 0,27.214 -5.199,51.471 -15.597,72.76 -10.389,21.281 -24.751,37.864 -43.063,49.74 -18.313,11.888 -39.101,17.821 -62.362,17.821 -23.763,0 -44.923,-5.933 -63.477,-17.821 -18.565,-11.876 -33.047,-28.459 -43.435,-49.74 -10.399,-21.289 -15.598,-45.285 -15.598,-72.015 0,-26.731 5.199,-50.745 15.598,-72.026 10.388,-21.28 24.87,-37.863 43.435,-49.74 18.554,-11.877 39.714,-17.82 63.477,-17.82 23.261,0 44.049,5.943 62.362,17.82 m 25.252,283.618 c 26.227,-15.849 46.773,-37.863 61.617,-66.083 14.854,-28.209 22.276,-60.389 22.276,-96.514 0,-35.64 -7.312,-67.449 -21.904,-95.407 C 72.639,-2.354 52.345,-24.257 26.358,-40.096 0.372,-55.925 -29.205,-63.85 -62.362,-63.85 c -25.242,0 -48.392,5.562 -69.421,16.704 -21.049,11.133 -38.738,26.841 -53.089,47.146 v -200.469 h -50.484 v 495.964 h 50.484 v -51.229 c 14.351,19.792 31.93,35.269 52.717,46.412 20.787,11.133 43.555,16.704 68.305,16.704 33.157,0 62.854,-7.925 89.102,-23.764"
             style="fill:#393939;fill-opacity:1;fill-rule:nonzero;stroke:none"
             id="path20" />
        </g>
        <g
           id="g22"
           transform="translate(1022.7129,216.165)">
          <path
             d="m 0,0 c -25.494,14.351 -44.913,34.635 -58.278,60.883 l 45.285,22.265 c 18.312,-39.1 54.205,-58.65 107.656,-58.65 25.734,0 47.024,4.696 63.859,14.109 16.815,9.393 25.243,24.005 25.243,43.807 0,20.284 -6.809,35.38 -20.425,45.285 -13.617,9.896 -37.491,16.332 -71.644,19.309 -47.517,3.952 -81.55,14.593 -102.085,31.92 -20.546,17.328 -30.813,40.338 -30.813,69.049 0,32.171 11.625,57.172 34.896,74.993 23.261,17.82 55.181,26.73 95.78,26.73 68.787,0 115.56,-27.233 140.32,-81.67 l -45.285,-22.275 c -8.428,19.791 -20.677,34.393 -36.757,43.807 -16.091,9.392 -36.747,14.098 -61.999,14.098 -25.735,0 -45.416,-4.706 -59.023,-14.098 -13.617,-9.414 -20.415,-22.779 -20.415,-40.097 0,-16.331 7.291,-29.586 21.904,-39.724 14.592,-10.146 39.723,-16.704 75.354,-19.671 44.048,-3.971 76.843,-14.732 98.374,-32.301 21.532,-17.569 32.302,-40.719 32.302,-69.421 0,-23.272 -6.678,-43.184 -20.043,-59.767 C 200.841,11.998 183.021,-0.503 160.745,-8.91 138.47,-17.327 114.454,-21.531 88.729,-21.531 55.06,-21.531 25.493,-14.351 0,0"
             style="fill:#393939;fill-opacity:1;fill-rule:nonzero;stroke:none"
             id="path24" />
        </g>
        <path
           d="m 1337.134,745.537 h 50.494 V 206.511 h -50.494 z"
           style="fill:#393939;fill-opacity:1;fill-rule:nonzero;stroke:none"
           id="path26" />
        <g
           id="g28"
           transform="translate(428.3945,553.9785)">
          <path
             d="m 0,0 v -51.974 c -14.361,20.295 -32.051,36.014 -53.089,47.157 -15.21,8.047 -31.519,13.173 -48.926,15.405 -9.953,-18.721 -24.369,-34.707 -41.838,-46.527 6.866,1.188 13.979,1.786 21.343,1.786 23.764,0 44.923,-5.933 63.488,-17.821 18.554,-11.877 33.036,-28.46 43.434,-49.74 C -5.199,-123.003 0,-146.999 0,-173.729 c 0,-26.731 -5.199,-50.746 -15.588,-72.026 -10.398,-21.28 -24.88,-37.863 -43.434,-49.74 -18.565,-11.877 -39.724,-17.82 -63.488,-17.82 -23.271,0 -44.058,5.943 -62.362,17.82 -18.323,11.877 -32.673,28.46 -43.062,49.74 -10.399,21.28 -15.598,45.536 -15.598,72.77 0,26.72 5.199,50.595 15.598,71.643 9.438,19.106 22.159,34.428 38.145,45.981 -8.519,-1.768 -17.343,-2.701 -26.386,-2.701 -13.812,0 -27.113,2.176 -39.591,6.189 -6.067,-7.916 -11.526,-16.478 -16.347,-25.715 -14.602,-27.967 -21.903,-59.766 -21.903,-95.397 0,-36.144 7.422,-68.315 22.275,-96.524 14.854,-28.219 35.38,-50.243 61.627,-66.082 26.228,-15.829 55.926,-23.754 89.092,-23.754 24.75,0 47.518,5.562 68.305,16.704 20.787,11.133 38.356,26.6 52.717,46.402 v -51.229 H 50.484 L 50.484,0 Z"
             style="fill:#393939;fill-opacity:1;fill-rule:nonzero;stroke:none"
             id="path30" />
        </g>
        <g
           id="g32"
           transform="translate(388.4194,877.6841)">
          <path
             d="m 0,0 c 42.168,0 76.353,-34.185 76.353,-76.353 0,-42.168 -34.185,-76.353 -76.353,-76.353 -42.168,0 -76.353,34.185 -76.353,76.353 C -76.353,-34.185 -42.168,0 0,0"
             style="fill:#00819d;fill-opacity:1;fill-rule:nonzero;stroke:none"
             id="path34" />
        </g>
        <g
           id="g36"
           transform="translate(212.2192,736.7241)">
          <path
             d="m 0,0 c 55.143,0 99.848,-44.704 99.848,-99.847 0,-55.144 -44.705,-99.848 -99.848,-99.848 -55.143,0 -99.847,44.704 -99.847,99.848 C -99.847,-44.704 -55.143,0 0,0"
             style="fill:#f2a319;fill-opacity:1;fill-rule:nonzero;stroke:none"
             id="path38" />
        </g>
        <g
           id="g40"
           transform="translate(323.8125,1141.9858)">
          <path
             d="M 0,0 C 22.706,0 41.114,-18.408 41.114,-41.114 41.114,-63.82 22.706,-82.228 0,-82.228 c -22.706,0 -41.114,18.408 -41.114,41.114 C -41.114,-18.408 -22.706,0 0,0"
             style="fill:#00819d;fill-opacity:1;fill-rule:nonzero;stroke:none"
             id="path42" />
        </g>
        <g
           id="g44"
           transform="translate(206.3457,1018.6436)">
          <path
             d="m 0,0 c 29.194,0 52.859,-23.665 52.859,-52.859 0,-29.195 -23.665,-52.86 -52.859,-52.86 -29.195,0 -52.86,23.665 -52.86,52.86 C -52.86,-23.665 -29.195,0 0,0"
             style="fill:#00819d;fill-opacity:1;fill-rule:nonzero;stroke:none"
             id="path46" />
        </g>
      </g>
    </g>
  </g>
</svg>
